<?xml version="1.0" encoding="utf-8"?>
<!-- Generator: Adobe Illustrator 24.1.1, SVG Export Plug-In . SVG Version: 6.00 Build 0)  -->
<svg version="1.1" id="Layer_1" xmlns="http://www.w3.org/2000/svg" xmlns:xlink="http://www.w3.org/1999/xlink" x="0px" y="0px"
	 viewBox="0 0 566.93 566.93" style="enable-background:new 0 0 566.93 566.93;" xml:space="preserve">
<style type="text/css">
	.st0{fill:#FFFFFF;}
	.st1{fill:#EA0029;}
	.st2{fill:#FFD600;}
</style>
<g>
	<g>
		<g>
			<path class="st0" d="M29.22,493.89c8.89,0,13.76,5.58,13.76,8.89c0,2.17-1.19,3.5-3.5,3.5c-4.49,0-3.16-6.14-10.26-6.14
				c-4.87,0-8.89,4.2-8.89,11.58c0,6.2,2.46,11.59,9.17,11.59c6.1,0,5.96-6.53,9.69-6.53c1.89,0,3.78,1.09,3.78,2.98
				c0,4.92-5.96,9.79-13.47,9.79c-10.64,0-16.93-6.1-16.93-17.83C12.58,502.12,18.25,493.89,29.22,493.89z"/>
			<path class="st0" d="M58.7,503.4c8.32,0,12.77,5.67,12.77,12.95c0,6.91-3.36,13.01-12.77,13.01s-12.77-6.1-12.77-13.01
				C45.93,509.07,50.38,503.4,58.7,503.4z M58.7,524.25c4.11,0,5.86-3.69,5.86-7.9c0-4.49-1.84-7.85-5.86-7.85s-5.86,3.36-5.86,7.85
				C52.84,520.56,54.59,524.25,58.7,524.25z"/>
			<path class="st0" d="M76.3,497.53c0-2.27,1.37-3.45,3.46-3.45c2.08,0,3.45,1.18,3.45,3.45v28.37c0,2.26-1.37,3.45-3.45,3.45
				c-2.09,0-3.46-1.19-3.46-3.45V497.53z"/>
			<path class="st0" d="M100.8,503.4c8.32,0,12.77,5.67,12.77,12.95c0,6.91-3.36,13.01-12.77,13.01s-12.77-6.1-12.77-13.01
				C88.04,509.07,92.48,503.4,100.8,503.4z M100.8,524.25c4.11,0,5.86-3.69,5.86-7.9c0-4.49-1.84-7.85-5.86-7.85
				s-5.86,3.36-5.86,7.85C94.94,520.56,96.69,524.25,100.8,524.25z"/>
			<path class="st0" d="M118.4,506.61c0-2.08,1.37-3.21,3.13-3.21c1.75,0,3.12,1.13,3.12,3.21v2.65h0.09
				c0.81-2.89,2.36-5.86,5.72-5.86c2.18,0,3.78,1.42,3.78,3.36c0,2.55-1.7,3.45-3.4,3.45h-1.22c-2.8,0-4.3,1.94-4.3,7.66v8.04
				c0,1.84-0.75,3.45-3.45,3.45s-3.46-1.61-3.46-3.45V506.61z"/>
			<path class="st0" d="M142.58,517.67c0,3.64,2.36,6.29,6.38,6.29c5.2,0,5.2-3.4,7.98-3.4c1.66,0,2.84,1.42,2.84,2.69
				c0,4.16-6.67,6.1-10.83,6.1c-9.65,0-13.29-6.53-13.29-12.53c0-8.04,4.87-13.43,13.05-13.43c7.94,0,12.48,5.62,12.48,11.3
				c0,2.36-0.71,2.98-3.03,2.98H142.58z M154.69,513.7c-0.38-3.16-2.75-5.48-5.82-5.48c-3.45,0-5.53,2.13-6.28,5.48H154.69z"/>
			<path class="st0" d="M188.6,522.07c0,2.89,0.71,3.55,0.71,4.64c0,1.56-1.46,2.65-3.12,2.65c-2.98,0-3.97-1.89-4.07-4.02
				c-2.69,2.98-5.81,4.02-9.46,4.02c-3.93,0-7.8-2.7-7.8-7.05c0-5.72,4.35-7.33,9.64-7.95l4.21-0.47c1.66-0.19,2.98-0.57,2.98-2.56
				c0-1.99-2.03-2.83-4.35-2.83c-5.11,0-5.25,3.78-7.99,3.78c-1.75,0-2.93-1.23-2.93-2.65c0-2.74,3.88-6.24,10.97-6.24
				c6.62,0,11.2,2.13,11.2,7.09V522.07z M181.7,517.1c-0.75,0.72-2.18,0.95-2.98,1.09l-2.5,0.38c-2.89,0.42-4.45,1.32-4.45,3.4
				c0,1.56,1.47,2.83,3.83,2.83c3.78,0,6.1-2.46,6.1-5.01V517.1z"/>
			<path class="st0" d="M194.57,506.85c0-2.08,0.95-3.45,3.12-3.45c2.18,0,3.13,1.37,3.13,3.45v0.9h0.09
				c1.94-2.56,4.44-4.35,8.37-4.35c4.16,0,8.7,2.08,8.7,9.08v13.43c0,1.84-0.75,3.45-3.46,3.45c-2.69,0-3.45-1.61-3.45-3.45v-12.06
				c0-2.8-1.37-4.77-4.35-4.77c-2.41,0-5.24,1.98-5.24,5.44v11.4c0,1.84-0.76,3.45-3.46,3.45s-3.45-1.61-3.45-3.45V506.85z"/>
			<path class="st0" d="M246.88,526.09c0,2.13-0.99,3.26-3.13,3.26c-2.03,0-3.12-1.14-3.12-3.26V525h-0.09
				c-1.13,2.93-3.93,4.35-7.28,4.35c-5.77,0-10.83-4.21-10.83-13.14c0-6.62,3.36-12.81,10.64-12.81c3.07,0,5.44,1.27,6.81,3.5h0.09
				v-9.36c0-2.27,1.37-3.45,3.45-3.45c2.09,0,3.46,1.18,3.46,3.45V526.09z M234.83,523.96c4.02,0,5.53-3.6,5.53-7.52
				c0-3.54-1.32-7.7-5.53-7.65c-4.4,0-5.48,4.44-5.48,7.65C229.34,520.51,231.14,523.87,234.83,523.96z"/>
			<path class="st0" d="M264.11,503.4c8.32,0,12.77,5.67,12.77,12.95c0,6.91-3.36,13.01-12.77,13.01c-9.41,0-12.77-6.1-12.77-13.01
				C251.34,509.07,255.79,503.4,264.11,503.4z M264.11,524.25c4.11,0,5.86-3.69,5.86-7.9c0-4.49-1.84-7.85-5.86-7.85
				c-4.02,0-5.86,3.36-5.86,7.85C258.25,520.56,260,524.25,264.11,524.25z"/>
			<path class="st0" d="M297.61,508.55h-1.18c-1.94,0-2.74-0.75-2.74-2.27c0-1.51,0.8-2.27,2.74-2.27h1.18v-4.2
				c0-2.27,1.38-3.45,3.46-3.45s3.45,1.18,3.45,3.45v4.2h2.08c2.03,0,3.12,0.62,3.12,2.27s-1.09,2.27-3.12,2.27h-2.08v13.81
				c0,1.04,0.57,1.61,1.79,1.61h0.99c1.52,0,2.41,0.85,2.41,2.32c0,1.99-1.7,3.07-5,3.07c-5.01,0-7.1-2.08-7.1-6.14V508.55z"/>
			<path class="st0" d="M336.73,525.9c0,2.08-0.95,3.45-3.13,3.45c-2.17,0-3.12-1.37-3.12-3.45V525h-0.09
				c-1.94,2.55-4.44,4.35-8.37,4.35c-4.16,0-8.7-2.08-8.7-9.08v-13.43c0-1.85,0.75-3.45,3.45-3.45s3.46,1.6,3.46,3.45v12.06
				c0,2.79,1.37,4.77,4.35,4.77c2.41,0,5.24-1.99,5.24-5.44v-11.4c0-1.85,0.75-3.45,3.45-3.45c2.7,0,3.46,1.6,3.46,3.45V525.9z"/>
			<path class="st0" d="M354.72,508.74c-0.18-0.57-0.42-1.32-0.42-1.76c0-2.46,1.7-3.59,3.36-3.59c2.6,0,3.26,2.17,3.45,2.88
				l4.64,15.61h0.09l4.64-15.61c0.19-0.71,0.85-2.88,3.45-2.88c1.66,0,3.36,1.13,3.36,3.59c0,0.43-0.23,1.19-0.42,1.76l-6.52,18.16
				c-0.66,1.84-1.09,2.46-4.54,2.46s-3.87-0.62-4.54-2.46L354.72,508.74z"/>
			<path class="st0" d="M384.19,493.89c1.98,0,3.59,1.61,3.59,3.6s-1.61,3.6-3.59,3.6c-1.99,0-3.6-1.61-3.6-3.6
				S382.21,493.89,384.19,493.89z M380.74,506.85c0-1.85,0.76-3.45,3.46-3.45c2.69,0,3.45,1.6,3.45,3.45v19.06
				c0,1.84-0.75,3.45-3.45,3.45c-2.69,0-3.46-1.61-3.46-3.45V506.85z"/>
			<path class="st0" d="M416.92,526.09c0,2.13-0.99,3.26-3.13,3.26c-2.03,0-3.12-1.14-3.12-3.26V525h-0.09
				c-1.13,2.93-3.93,4.35-7.28,4.35c-5.77,0-10.83-4.21-10.83-13.14c0-6.62,3.36-12.81,10.64-12.81c3.07,0,5.44,1.27,6.81,3.5h0.09
				v-9.36c0-2.27,1.37-3.45,3.45-3.45c2.09,0,3.46,1.18,3.46,3.45V526.09z M404.86,523.96c4.02,0,5.53-3.6,5.53-7.52
				c0-3.54-1.32-7.7-5.53-7.65c-4.4,0-5.48,4.44-5.48,7.65C399.38,520.51,401.17,523.87,404.86,523.96z"/>
			<path class="st0" d="M445.35,522.07c0,2.89,0.71,3.55,0.71,4.64c0,1.56-1.46,2.65-3.12,2.65c-2.98,0-3.97-1.89-4.07-4.02
				c-2.69,2.98-5.81,4.02-9.46,4.02c-3.93,0-7.8-2.7-7.8-7.05c0-5.72,4.35-7.33,9.64-7.95l4.21-0.47c1.66-0.19,2.98-0.57,2.98-2.56
				c0-1.99-2.03-2.83-4.35-2.83c-5.11,0-5.25,3.78-7.99,3.78c-1.75,0-2.93-1.23-2.93-2.65c0-2.74,3.88-6.24,10.97-6.24
				c6.62,0,11.2,2.13,11.2,7.09V522.07z M438.45,517.1c-0.75,0.72-2.18,0.95-2.98,1.09l-2.5,0.38c-2.89,0.42-4.45,1.32-4.45,3.4
				c0,1.56,1.47,2.83,3.83,2.83c3.78,0,6.1-2.46,6.1-5.01V517.1z"/>
			<path class="st0" d="M474.26,496.44c0.66-1.75,1.89-2.36,3.79-2.36h1.84c1.75,0,3.31,0.42,4.16,2.83l9.36,26.06
				c0.28,0.75,0.76,2.13,0.76,2.98c0,1.89-1.66,3.4-3.64,3.4c-1.7,0-2.93-0.62-3.5-2.13l-1.99-5.67h-12.48l-2.03,5.67
				c-0.52,1.51-1.61,2.13-3.45,2.13c-2.13,0-3.6-1.32-3.6-3.4c0-0.85,0.48-2.23,0.76-2.98L474.26,496.44z M478.94,502.5h-0.09
				l-4.59,13.67h9.08L478.94,502.5z"/>
			<path class="st0" d="M501.85,521.32c2.13,0,3.87,1.75,3.87,3.87c0,2.13-1.75,3.88-3.87,3.88c-2.13,0-3.88-1.75-3.88-3.88
				C497.97,523.06,499.72,521.32,501.85,521.32z"/>
			<path class="st0" d="M528.24,493.89c8.89,0,13.76,5.58,13.76,8.89c0,2.17-1.19,3.5-3.5,3.5c-4.49,0-3.16-6.14-10.26-6.14
				c-4.87,0-8.89,4.2-8.89,11.58c0,6.2,2.46,11.59,9.17,11.59c6.1,0,5.96-6.53,9.69-6.53c1.89,0,3.78,1.09,3.78,2.98
				c0,4.92-5.96,9.79-13.47,9.79c-10.64,0-16.93-6.1-16.93-17.83C511.59,502.12,517.26,493.89,528.24,493.89z"/>
			<path class="st0" d="M550.48,521.32c2.13,0,3.87,1.75,3.87,3.87c0,2.13-1.75,3.88-3.87,3.88c-2.13,0-3.88-1.75-3.88-3.88
				C546.6,523.06,548.35,521.32,550.48,521.32z"/>
		</g>
	</g>
	<path class="st1" d="M529.06,262.69c-18.57-12.66-57.17-11.37-71.01-7.57c-13.84,3.8-24.34,6.48-24.34,6.48s16.74-17.2,23.44-25.69
		c6.7-8.49,18.97-39.08,12.72-54.04c-6.26-14.96-34.66-38.42-77.53-17.64s-46.81,68.39-50.48,92.5
		c-3.7,24.34,2.55,99.79,3.67,107.61c1.12,7.82,12.04,63.57,12.93,66.92c0.89,3.35,0.58,18.93,8.75,15.25c0,0,2.68,5.36,7.37,3.12
		c0,0,9.81-6.56,14.05-9.24c4.24-2.68,43.11-26.06,50.7-28.96s59.84-23.46,66.09-26.81c6.25-3.35,27.35-12.11,41.02-44.57
		C557.08,314.81,551.52,278,529.06,262.69z M471.67,363.94c-7.37,3.35-55.79,31.87-63.16,34.78c-7.37,2.9-18.8,11.55-28.79,26.02
		c1.91-16.23-3.37-31.82-4.04-36.74c-0.67-4.91-6.93-42.65-6.27-77.26c0.66-34.61,7.22-62.31,13.02-77.95
		c5.8-15.63,8.88-20.08,18.7-26.19c11-6.85,20.77,3.45,20.55,20.2c-0.22,16.75-11.12,35.34-15.58,43.6
		c-4.46,8.26-8.33,13.76-5.87,17.11c2.46,3.35,8.58,2.21,15.22-0.85c14.61-6.75,37.03-9.88,62.27-4.75
		c25.24,5.13,22.61,29.73,21.32,44.47C497.12,348.12,479.04,360.58,471.67,363.94z"/>
	<path class="st0" d="M330.7,381.67c-7.97-30.33-25.74-80.66-38.81-102.58c-13.07-21.92-28.73-45.46-44.5-39.9
		c-15.76,5.56-33.92,38.77-47.12,67.75c-13.21,28.98-34.2,88.29-36,94.45c-1.8,6.16,1.09,14.1,6.79,15.15
		c5.71,1.05,8.71,0,14.71-12.47c6-12.46,12.83-29.96,12.83-29.96s21.24-7.44,34.01-9.85c12.76-2.41,43.09-9.17,45.35-5.72
		c2.25,3.45,6.31,31.75,7.66,39.71c1.35,7.96,10.37,31,23.89,32.65C323.01,432.57,338.67,412,330.7,381.67z M238.61,345.5
		c-7.51,0.45-34.08,5.26-34.08,5.26s8.55-23.42,10.2-28.08c1.65-4.65,9.3-18.77,10.35-21.62c1.05-2.85,8.55-17.57,12.61-18.77
		c4.05-1.2,9.16,1.95,13.97,11.26c4.81,9.31,18.48,45.79,18.48,45.79S246.12,345.05,238.61,345.5z"/>
	<path class="st2" d="M63.44,379.01c0,0-4.42,28.55-0.14,39.18c4.29,10.63,14.09,17.55,23.64,13.96
		c11.63-4.37,24.89-22.32,24.88-56.27c0-19.72-5-62.95-5.48-69.46s-3.8-32.25-5.86-44.09s-12.34-41.56,1.94-48.39
		c14.28-6.83,41.12-9.04,42.9,11.81c1.43,16.72,12.57,83.19,10.2,105.24c-2.37,22.05-1.1,83.26-21.43,110.43
		c-14.35,19.18-53.47,34.83-76.64,22.77s-39.04-66.62-41.9-80.74s16.11-21.32,20.19-22C47.44,359.5,61.87,357.94,63.44,379.01z"/>
</g>
</svg>
